<svg xmlns="http://www.w3.org/2000/svg" xmlns:xlink="http://www.w3.org/1999/xlink" width="129.832" height="139" viewBox="0 0 129.832 139">
  <defs>
    <clipPath id="clip-path">
      <rect id="Rectangle_15" data-name="Rectangle 15" width="31" height="32" fill="#fff" stroke="#707070" stroke-width="1"/>
    </clipPath>
  </defs>
  <g id="Group_16974" data-name="Group 16974" transform="translate(1 1)">
    <g id="Group_16377" data-name="Group 16377">
      <g id="Rectangle_10257" data-name="Rectangle 10257" fill="#f4f4f4" stroke="#bbb" stroke-width="1" stroke-dasharray="2 5">
        <rect width="127.832" height="137" rx="14" stroke="none"/>
        <rect x="-0.5" y="-0.5" width="128.832" height="138" rx="14.5" fill="none"/>
      </g>
      <g id="Group_16382" data-name="Group 16382" transform="translate(26.001 27)">
        <g id="Group_16374" data-name="Group 16374" transform="translate(22.836 0)">
          <g id="Mask_Group_2" data-name="Mask Group 2" clip-path="url(#clip-path)">
            <g id="Group_174" data-name="Group 174" transform="translate(3.395 3.063)">
              <path id="Path_101" data-name="Path 101" d="M215.924,236.488v1.944h15.55v-1.944c0-2.59-5.185-3.887-7.775-3.887S215.924,233.9,215.924,236.488Z" transform="translate(-210.741 -217.699)" fill="#bfbfbf"/>
              <path id="Path_102" data-name="Path 102" d="M222.811,232.876a3.887,3.887,0,1,0-3.887-3.887A3.89,3.89,0,0,0,222.811,232.876Z" transform="translate(-209.853 -219.918)" fill="#bfbfbf"/>
              <path id="Path_103" data-name="Path 103" d="M212.734,228.119a.81.81,0,0,0,.81-.81v-3.24a1.352,1.352,0,0,1,1.35-1.349h3.24a.81.81,0,0,0,0-1.62h-3.24a2.972,2.972,0,0,0-2.97,2.969v3.24A.81.81,0,0,0,212.734,228.119Z" transform="translate(-211.924 -221.101)" fill="#bfbfbf"/>
              <path id="Path_104" data-name="Path 104" d="M218.134,241.084h-3.24a1.353,1.353,0,0,1-1.35-1.35v-3.24a.81.81,0,1,0-1.62,0v3.24a2.973,2.973,0,0,0,2.97,2.97h3.24a.81.81,0,0,0,0-1.62Z" transform="translate(-211.924 -216.787)" fill="#bfbfbf"/>
              <path id="Path_105" data-name="Path 105" d="M230.557,221.1h-3.24a.81.81,0,1,0,0,1.62h3.24a1.35,1.35,0,0,1,1.349,1.349v3.24a.81.81,0,1,0,1.62,0v-3.24A2.971,2.971,0,0,0,230.557,221.1Z" transform="translate(-207.61 -221.101)" fill="#bfbfbf"/>
              <path id="Path_106" data-name="Path 106" d="M232.716,235.684a.81.81,0,0,0-.81.81v3.24a1.352,1.352,0,0,1-1.349,1.35h-3.24a.81.81,0,1,0,0,1.62h3.24a2.972,2.972,0,0,0,2.969-2.97v-3.24A.81.81,0,0,0,232.716,235.684Z" transform="translate(-207.61 -216.787)" fill="#bfbfbf"/>
            </g>
          </g>
        </g>
        <text id="Ảnh_chân_dung_nhìn_từ_trên_xuống" data-name="Ảnh chân dung
nhìn từ trên xuống" transform="translate(37.999 59.833)" fill="#bbb" font-size="12" font-family="SegoeUI, Segoe UI" letter-spacing="0em"><tspan x="-40.391" y="0">Ảnh chân dung</tspan><tspan x="-49.335" y="20">nhìn từ trên xuống</tspan></text>
      </g>
    </g>
  </g>
</svg>
