<svg id="SvgjsSvg1048" width="256" height="256" xmlns="http://www.w3.org/2000/svg" version="1.1" xmlns:xlink="http://www.w3.org/1999/xlink" xmlns:svgjs="http://svgjs.com/svgjs"><defs id="SvgjsDefs1049"></defs><g id="SvgjsG1050"><svg xmlns="http://www.w3.org/2000/svg" fill="none" viewBox="0 0 24 24" width="256" height="256"><path fill="#595bd4" d="M12 1C5.925 1 1 5.925 1 12s4.925 11 11 11 11-4.925 11-11S18.075 1 12 1Z" class="color3747D6 svgShape"></path><path fill="#fe9526" d="M12 4.5a4.75 4.75 0 1 0 0 9.5 4.75 4.75 0 0 0 0-9.5Z" class="color90CAEA svgShape"></path><path fill="#fe9526" fill-rule="evenodd" d="M20.5 18.983V18.5c0-.387-.147-.721-.301-.972-.16-.26-.372-.5-.605-.718-.468-.437-1.103-.861-1.844-1.231-1.483-.742-3.51-1.329-5.75-1.329s-4.267.587-5.75 1.329c-.74.37-1.376.794-1.844 1.23a3.571 3.571 0 0 0-.605.72c-.154.25-.301.584-.301.971v.483A10.978 10.978 0 0 0 12 23c3.424 0 6.483-1.564 8.5-4.017Z" clip-rule="evenodd" class="color90CAEA svgShape"></path></svg></g></svg>